<?xml version="1.0" encoding="UTF-8"?>
<svg width="128pt" height="128pt" version="1.1" viewBox="0 0 128 128" xmlns="http://www.w3.org/2000/svg">
 <path d="m124.72 27.43c-0.91016-2.2383-3.2109-3.0352-5.4766-2.6758-0.97266 0.12891-1.9062 0.42188-2.8789 0.53906-1.0117 0.12891-2.0352 0.24219-3.0586 0.26953-1.8164 0.050781-3.5469-0.32031-5.2852-0.83203-3.0586-0.92188-6.0547-2.0977-8.9102-3.5195 1.1523 4.9414 6.6172 7.3086 8.6289 7.5508 0 0-0.19141 0.29297-0.23047 0.33203-0.29297 0.32031-0.69141 0.52344-1.0352 0.78125-1.1523 0.82031-2.4688 1.4844-3.9023 1.5234-0.60156 0.027343-1.1914-0.0625-1.7773-0.16797-0.28125-0.039063-0.76953-0.16797-0.88281 0.20312-0.0625 0.20312 0.12891 0.46094 0.25781 0.61328 0.16797 0.21875 0.34375 0.41016 0.53906 0.60156 1.6641 1.7148 4.1484 2.5078 6.5039 2.1758 2.8555-0.29297 5.6562-1.7266 7.3203-4.1719 0.87109-1.3047 1.5117-2.8789 2.8672-3.7773 1.625-1.0625 3.8398-0.89453 5.4648 0.0625 0.28125 0.16797 0.55078 0.37109 0.80469 0.58984 0.21875 0.19141 0.43359 0.52344 0.70312 0.62891 0.44922 0.14062 0.48828-0.42188 0.34375-0.71875zm-5.2734 26.457c-0.35938 0.19141-0.73047 0.35938-1.1133 0.5-0.78125 0.28125-1.5859 0.46094-2.4062 0.5625-1.1133 0.14062-2.1875 0.17969-3.2383 0.039062-0.84375-0.11328-1.6641-0.35938-2.4844-0.75391-1.0352-0.51172-2.0078-1.1406-3.0859-1.5625-1.8164-0.70312-3.8125-0.79297-5.7617-0.64062-2.0625 0.15234-3.918 0.57422-5.6211 1.832-1.7266 1.2812-2.9453 3.0977-4.2109 4.8125-1.3945 1.8828-2.8789 3.6719-4.4141 5.4414-0.76953 0.88281-1.5352 1.7539-2.3164 2.625-0.74219 0.83203-1.4062 1.7031-2.2148 2.5078-0.011719 0.011719-0.027343 0.027344-0.050781 0.050781-0.33203 0.33203-0.69141 0.66406-1.0508 0.98438-0.16797 0.14062-0.88281 0.92188-1.0898 0.89453 4.0312 0.60156 7.2461-2.8047 10.957-3.6992 0.75391-0.17969 1.5352-0.26953 2.2773-0.51172 1.2148-0.39844 2.2539-1.1914 3.2383-2.0234 0.98438-0.82031 1.9453-1.6914 3.0859-2.2773 1.1406-0.58984 2.5078-0.87109 3.7109-0.42188 1.2031 0.43359 2.1367 1.7266 1.8672 2.9805 2.8164-0.32031 5.4922-1.8047 7.2578-4.0195-1.8047 0.89453-4.082 0.75391-5.7734-0.35938 5.6719-1 10.879-1.8555 13.402-7.5898-0.10156 0.24219-0.75391 0.51172-0.98437 0.62891zm-51.035 47.168c-6.9766 2.3164-14.016-1.1758-17.945 6.6289 6.2461-8.0625 15.617-1.0234 22.707-7.3477-1.0234-0.089844-2.7656-0.29297-4.7617 0.71875zm20.621-43.508c-0.33203 0.44922-1.4727 1.4961-1.2656 2.1133 0.5625-0.32031 1.1406-0.97266 1.5742-1.4609 1-1.0898 1.6133-2.4688 2.4688-3.6602 1.2422-1.7266 2.9805-3.0703 4.9648-3.8398s4.1875-0.92188 6.2578-0.47266c-0.89453-1.4961-2.7266-2.1523-4.4531-2.3438-1.5234-0.16797-3.0586-0.078124-4.582 0.10156-1.1914 0.14062-2.3789 0.32031-3.5859 0.21875-1.1406-0.10156-2.2266-0.44922-3.3164-0.80469 0.71875 0.84375 1.3438 1.7656 1.8828 2.7266 0.15234 0.28125 0.30859 0.5625 0.32031 0.88281 0.011719 0.58984-0.5625 1.125-1.1523 1.0625 1.1016 0.71875 1.5469 2.125 1.5859 3.4297 0 0.34375 0 0.69141-0.11328 1.0234-0.12891 0.37109-0.35938 0.69141-0.60156 1.0117zm-2.1367 15.32c-2.1641 0.48828-4.3398 1.1406-6.2461 2.2773-0.65234 0.41016-1.3047 0.80469-1.9727 1.1758-3.1992 1.793-7.1055 3.2383-10.484 2.8672-1.6758-0.14062-2.2383-1.1016-4.7891-1.6758-1.6758-0.38281-4.5039-0.43359-4.1875-1.2422 1.0625-1.332 7.4102-0.70312 9.0352-1.1016 1.4453-0.35938 4.2617-1.0898 6.1953-5.4414-1.3203 0.33203-2.4961 1.0508-3.7891 1.2305 0 0-1.6914 0.14062-2.3164-0.0625 2.0742-1.125 4.082-2.3672 6.1562-3.5078 2.5586-1.4062 5.1602-2.3555 7.207-4.5039 0.42188-0.46094 0.84375-1 0.98438-1.6133 0.078125-0.64062-0.78125-0.84375-1.2539-0.85938-0.42188 0-0.83203 0.11328-1.2305 0.26953-1.0508 0.41016-2.0469 0.92187-3.0977 1.3555-1.7422 0.71875-3.4961 1.3828-5.3008 1.9062-0.17969 0.050782-2.8281 0.60156-2.8164 0.48828 0.078124-0.57422 6.5391-2.5352 6.3984-4.5195 0-0.51172-3.5977 1.6914-6.2734 2.2266-0.93359 0.19141-1.8438 0.20312-2.7656 0.25781 0.84375-0.41016 1.5234-1.0508 2.2266-1.6523 0.88281-0.76953 1.6641-1.6367 2.4961-2.4453 0.83203-0.82031 1.6641-1.6367 2.4961-2.4688 10.254-10.035 11.867-16.168 16.32-29.246 0.15234 5.543-1.1133 11.047-3.457 16.062 13.133-2.625 1.3828-28.684 10.379-27.48-2.0625 1.2656-2.418 3.7773-2.6758 5.1836 10.547-6.5664 11.227 6.2344 22.836-0.76953 2.2773-1.832 4.2891-4.6094 7.5-3.3672-1.3555-1.332-3.7109-1.5625-5.3359-0.93359-15.719 6.0664-19.941-5.2461-26.137-3.457-4.4141 1.1914-6.6055 6.3633-9.5234 9.6758-2.1367 2.0234-5.4922 2.0078-7.707 4.082-0.70312 0.51172-2.1641 0.17969-2.5859-0.58984-6.7695-14.824-28.531-16.523-38.195-3.7617-6.2461 7.7578-2.3789 18.535-0.17969 27.16 0.17969 1.8164-6.1055 0.93359-7.4766 0.53906-4.3906-1.1758-10.328-0.43359-12.531 4.1211-2.2539 4.9922-10.816 0.82031-11.621 8.168 7.8984-5.9023 16.703 1.1914 23.73 7.207 8.2695 5.1328 20.684 6.3633 23.988 16.102 0.24219 1.2812 0.91016 1.7031-1.1758 1.7773-4.2383 0.47266-13.301 2.4453-9.7031 8.4102 2.7148 3.0859-5.5156 6.3086-6.0273 13.465-1.0898 9.3828 10.738 11.66 14.375 1.5742-1.1133 0.55078-1.6523 1.9453-2.8672 2.3047-0.17969-0.43359 0.33203-0.53906 0.28125-0.92188-3.6602 2.625-5.6719 0.83203-3.6211-1.1016 2.8672-2.9688 2.3789-8.5625 4.9531-12.043 4.8398-8.5742 15.656-7.1289 23.938-9.0117 9.6758-1.957 11.266-7.0156 16.129-11.609 0.60156-1.4453 10.598-1.6641 14.258-11.812-2.4062 3.1602-12.891 6.9375-14.539 7.2969zm-7.6562-39.68c10.559-7.4375-14.77 31.258-18.98 27.559 8.6523-6.6445 13.543-17.203 18.406-26.895 0.14062-0.26953 0.33203-0.5 0.57422-0.66406zm-33.637-5.082c0.027343-0.65234 0.17969-1.3047 0.48828-1.9062 0.050781-0.10156 0.11328-0.20312 0.17969-0.30859 0.039062-0.050781 0.0625-0.11328 0.11328-0.16797 0.039062-0.050781 0.078125-0.10156 0.11328-0.16797 0.47266-0.61328 1.0898-0.65234 1.7031-0.21875 0.96094 0.67969 1.6914 1.4219 2.2266 2.2031 0.039062 0.0625 0.089843 0.12891 0.12891 0.17969 0.011718 0.027344 0.039062 0.050781 0.050781 0.078125 0.15234 0.25781 0.29297 0.51172 0.41016 0.76953 0.027344 0.0625 0.050781 0.14062 0.078125 0.20312 0.078125 0.19141 0.15234 0.38281 0.21875 0.58984 0.027344 0.089844 0.050782 0.17969 0.0625 0.26953 0.050782 0.17969 0.10156 0.37109 0.12891 0.55078 0.011719 0.10156 0.027344 0.19141 0.039063 0.29297 0.027344 0.20312 0.0625 0.42188 0.078125 0.62891 0-0.14062-0.027344-0.26953-0.050781-0.41016 0 0.0625 0.027343 0.12891 0.027343 0.19141 0 0.078126 0.011719 0.14063 0.011719 0.21875 0 0.11328 0.011719 0.21875 0.011719 0.33203 0.050781 1.3047-0.17969 2.6758-0.55078 4.0977 0 0.027344 0 0.050781-0.011719 0.0625-0.15234 0.57422-0.32031 1.1641-0.51172 1.7539-0.027343 0.0625-0.039062 0.12891-0.0625 0.19141 0 0.011719-0.011719 0.039063-0.027343 0.050782-0.12891 0.30859-0.29297 0.55078-0.47266 0.70312-0.17969 0.15234-0.37109 0.23047-0.57422 0.25781h-0.0625c-0.28125 0-0.57422-0.10156-0.87109-0.30859-0.039063-0.027344-0.089844-0.0625-0.12891-0.089844-0.12891-0.10156-0.25781-0.21875-0.37109-0.35938l-0.039063-0.039063c-0.027344-0.039062-0.0625-0.078125-0.089844-0.12891-0.039062-0.050781-0.078124-0.11328-0.11328-0.17969-0.089843-0.15234-0.15234-0.30859-0.23047-0.46094-0.027343-0.0625-0.050781-0.12891-0.0625-0.19141-0.027343-0.0625-0.039062-0.12891-0.0625-0.19141v-0.039062c-0.050781-0.15234-0.078124-0.30859-0.11328-0.46094-0.011719-0.078124-0.027343-0.15234-0.050781-0.21875-0.011719-0.078124-0.027344-0.15234-0.039062-0.23047-0.011719-0.078125-0.027344-0.15234-0.039063-0.23047-0.14062-0.85938-0.23047-1.7266-0.43359-2.5859-0.16797-0.69141-0.39844-1.3711-0.61328-2.0469 0-0.011718 0-0.039062-0.011719-0.050781-0.10156-0.30859-0.19141-0.62891-0.26953-0.93359-0.12891-0.53906-0.20312-1.0742-0.20312-1.6016v-0.11328zm-7.0781 10.395c-0.15234-0.12891-0.26953-0.30859-0.35938-0.48828-0.11328-0.21875-0.20312-0.47266-0.28125-0.71875-0.0625-0.21875-0.12891-0.43359-0.19141-0.65234v-0.039063c-0.050781-0.23047-0.11328-0.44922-0.16797-0.67969-0.24219-0.97266-0.39844-1.8945-0.41016-2.7656v-0.37109c0.027343-1.1641 0.30859-2.2383 0.92187-3.2266 0 0 0.011719-0.027344 0.027344-0.027344 0.46094-0.71875 1.1016-1.3711 1.957-1.9727 0.51172-0.37109 1.0234-0.34375 1.4336 0.17969 1.5117 1.9844 0.35938 4.0703-0.17969 6.1445-0.16797 0.71875-0.24219 1.4453-0.35938 2.1758-0.11328 0.67969-0.25781 1.3945-0.67969 1.957-0.37109 0.47266-1.1523 0.93359-1.7031 0.48828zm13.211 9.625c-0.39844-0.29297-0.71875-0.70312-1.1641-0.89453-0.60156-0.25781-1.2812-0.29297-1.9336-0.15234-0.53906 0.11328-1 0.38281-1.4961 0.58984-0.011719 0-0.027343 0-0.039062 0.011719-0.5625 0.23047-1.2539 0.53906-1.8438 0.20312-0.24219-0.14062-0.44922-0.33203-0.70312-0.46094-0.15234-0.078125-0.33203-0.14062-0.5-0.078125-0.16797 0.0625-0.28125 0.23047-0.34375 0.39844-0.0625 0.16797-0.10156 0.34375-0.17969 0.51172-0.12891 0.25781-0.62891 0.74219-0.92188 0.43359-0.089843-0.089844-0.15234-0.21875-0.20312-0.33203-0.55078-1.125-1-2.3281-1.4062-3.5078-0.32031-0.89453-0.42188-1.8438 0.10156-2.6875 0.28125-0.44922 0.66406-0.82031 1.0742-1.1523 0.5-0.39844 1.0508-0.75391 1.6641-0.91016 0.97266-0.23047 1.8945 0.10156 2.8555 0.25781 0.21875 0.039062 0.44922 0.078125 0.66406 0.12891 0.52344 0.11328 1.0508 0.29297 1.4844 0.62891 0.46094 0.35938 0.75391 0.88281 1.0117 1.3945 0.33203 0.62891 0.61328 1.2812 0.94531 1.8945 0.39844 0.75391 0.87109 1.4727 1.3828 2.1641 0.5 0.67969 1.0234 1.3438 1.5859 1.9844-0.69141 0.15234-1.4453 0-2.0234-0.42188zm5.6836-1.1406c1.9062-8.2578-3.918-16.293-1.7422-24.652 0.15234-1.3438 1.0625-2.6094 0.52344-3.9922-0.20312-0.60156-0.0625-1.125 0.34375-1.5352 5.043-4.4297 10.699 1.7539 13.812 5.6328 0.79297 1.2656 2.3555 3.4805 1.2656 4.6328-0.65234 0.51172 0.19141 0.60156 0.79297 0.19141 0.16797-0.11328 0.37109-0.46094 0.73047-0.55078 4.3398-1.0898-5.4766 8.1133-3.3008 12.059 1.1133 0.35938 1.7148-2.4336 2.293-4.4805 0.34375-1.2305 1.2031-2.2539 2.3672-2.7773 1.3555-0.61328 2.9688-1.1133 2.7148 0.16797-4.7109 7.8711-6.0781 21.441-16.613 23.281 0.96094-0.83203 9.293-11.227 7.1406-11.238-0.25781 0-0.48828 0.15234-0.61328 0.37109-1.3555 2.2148-3.0352 4.4141-5.543 6.0781-5.6211 2.7539-4.6602 1.1758-4.1602-3.1992zm47.961-6.6797c1.6016-1.0117 3.918-0.69141 5.2852 0.57422 0.14062 0.15234 0.43359 0.34375 0.57422 0.10156 0.050781-0.12891 0-0.26953-0.039063-0.39844-0.79297-1.8945-3.1992-2.1758-4.9805-1.7266-0.93359 0.21875-1.832 0.57422-2.7539 0.88281-2.3789 0.79297-4.875 1.1133-7.2305 0.050781 0.11328 0.42188 0.34375 0.82031 0.66406 1.1133 0.14062 0.12891 0.29297 0.25781 0.35938 0.43359 0.17969 0.52344-0.42188 0.92187-0.82031 1.1133-1.1016 0.55078-2.3672 0.87109-3.5977 0.75391-0.19141-0.027344-0.70312-0.15234-0.79297 0.12891-0.078125 0.24219 0.47266 0.69141 0.61328 0.83203 0.28125 0.26953 0.58984 0.5 0.91016 0.69141 2.9805 1.7773 7.668 0.65234 9.7422-2.0625 0.64062-0.85938 1.125-1.8945 2.0352-2.5078zm-18.957 2.3281v0-0.011718z"/>
</svg>
