
<?xml version="1.0" encoding="UTF-8"?>
<svg id="Layer_1" data-name="Layer 1" xmlns="http://www.w3.org/2000/svg" viewBox="0 0 539.05 296.72">
  <defs>
    <style>
      .cls-1 {
        fill: #78278b;
      }

      .cls-2 {
        fill: #8ca4d5;
      }
    </style>
  </defs>
  <g>
    <path class="cls-2" d="M383,226.74c-12.57-2.1-23.96-7.3-33.33-15.86-11.84-10.81-18.94-25.62-21.5-42.53,2.51,6.34,6.23,11.92,11.2,16.45,11.67,10.67,28.07,13.57,45.41,9.72,8.6-49.35,42.37-89.77,81.36-99.78.28-15.99-4.64-30.23-15.12-39.78-24.18-22.08-68.77-10.91-99.62,24.95-2.88,3.35-5.54,6.78-7.96,10.3-10.04,19.25-16.9,40.89-19.47,63.72-8.44,75.12,32.54,136.45,92.98,142.79-19.33-14.61-31.97-39.86-33.96-69.98Z"/>
    <path class="cls-1" d="M516.46,16.93c-36.12-32.99-102.73-16.3-148.79,37.27-9.82,11.42-17.95,23.62-24.23,36.03,2.43-3.51,5.09-6.96,7.97-10.31,30.85-35.86,75.44-47.03,99.62-24.95,24.18,22.08,18.78,69.06-12.04,104.91-30.83,35.86-75.44,47.03-99.61,24.93-4.97-4.53-8.69-10.11-11.2-16.45,2.56,16.91,9.66,31.72,21.5,42.53,36.13,33,102.74,16.31,148.79-37.26,46.05-53.56,54.12-123.72,18-156.7Z"/>
    <path class="cls-1" d="M39.38,82.71H0v1.7c3.42.35,7.03,1.4,7.03,7.28v56.2l10.45-.81c1.4-.14,2.24-1.04,2.24-2.87,0,0-.02-21.04-.02-25.26h18.66c11.49,0,18.65-8.52,18.65-18.39,0-10.68-7.36-17.84-17.64-17.84ZM29.64,115.02h-9.93v-24.6c0-2.32,1.75-3.84,4.07-3.84h6.66c8.03,0,13.8,5.59,13.8,13.94,0,7.71-5.6,14.5-14.59,14.5Z"/>
    <path class="cls-1" d="M265.8,144.58c-9.29-1.11-11.2-11.29-11.2-19.36,0-.75.02-.97.05-1.5h31.08c0-8.7-4.53-22.3-21.17-22.3-14.97,0-23.08,10.61-23.08,23.8,0,12.36,6.52,23.77,23.6,23.77,10.52,0,16.15-4.2,16.15-4.2l-1.36-3.14s-6.54,3.87-14.08,2.93ZM264.47,105.27c7.29,0,8.49,9.25,8.49,14.14h-18.04c.8-7.07,3.11-14.14,9.55-14.14Z"/>
    <path class="cls-1" d="M388.02,144.58c-9.3-1.11-11.19-11.29-11.19-19.36,0-.75.03-.97.06-1.5h31.07c0-8.7-4.54-22.3-21.16-22.3-14.99,0-23.08,10.61-23.08,23.8,0,12.36,6.51,23.77,23.55,23.77,10.56,0,16.18-4.2,16.18-4.2l-1.36-3.14s-6.54,3.87-14.08,2.93ZM386.69,105.27c7.3,0,8.49,9.25,8.49,14.14h-18.02c.79-7.07,3.11-14.14,9.53-14.14Z"/>
    <path class="cls-1" d="M348.34,102.47h-14.44v1.7c3.43.36,7.03,1.4,7.03,7.28v36.45l8.94-.71c1.37-.12,2.21-1.04,2.21-2.87v-37.72c0-2.64-1.29-4.11-3.75-4.11Z"/>
    <path class="cls-1" d="M301.11,147.89v-57.7c0-2.38-2.02-3.64-3.74-3.64h-6.07c-3.84,0-6.63,2.12-7,6.3l-.19,2.01h-3.19l.87-12.21h51.29l.92,12.21h-3.21l-.16-2.01c-.42-4.55-3.14-6.3-7-6.3h-9.84s.01,57.65.01,57.65c0,1.83-.85,2.74-2.24,2.87l-10.46.81Z"/>
    <path class="cls-1" d="M98.91,136.12c-1.43,1.88-6.8,7.54-12,7.54-5.9,0-7.77-4.15-7.77-11.7v-25.37c0-2.64-1.31-4.11-3.75-4.11h-14.44v1.7c3.43.36,7.02,1.4,7.02,7.28v20.23c0,11.91,6.1,17.26,15.3,17.26,7.91,0,13.81-5,15.77-7.57l.99,3.63c.56,2.27,1.67,2.92,3.62,2.92h6.43v-41.33c0-2.64-1.31-4.11-3.77-4.11h-14.43v1.7c3.41.36,7.02,1.4,7.02,7.28v24.68Z"/>
    <path class="cls-1" d="M227.32,81.15h-14.47v1.68c3.46.39,7.05,1.41,7.05,7.3v57.75l8.93-.71c1.41-.12,2.25-1.04,2.25-2.87v-59.04c0-2.65-1.32-4.11-3.75-4.11Z"/>
    <path class="cls-1" d="M190.51,101.42c-6.73,0-11.74,5.17-13.04,7.43l-.64-2.27c-.81-2.97-1.74-4.12-4.52-4.12h-12.9v1.7c3.43.36,7.04,1.4,7.04,7.28v57.8l8.92-.7c1.39-.14,2.24-1.05,2.24-2.86v-22.77c1.46,2.08,6.38,6.07,12.91,6.07,14.38,0,19.26-13.85,19.26-23.77s-4.39-23.8-19.26-23.8ZM186.72,143.29c-4.34,0-7.37-3.4-9.12-6v-23.39c1.11-2.24,4.78-6.36,9.12-6.36,8.2,0,11.14,10.12,11.14,17.68s-2.66,18.07-11.14,18.07Z"/>
    <path class="cls-1" d="M154.37,102.89c-1.11-.87-3.23-1.46-5.57-1.46-7.19,0-12.12,5.87-12.99,7.84l-.77-2.68c-.8-2.97-1.75-4.12-4.52-4.12h-12.91v1.7c3.44.36,7.04,1.4,7.04,7.28v36.45l8.93-.71c1.39-.12,2.23-1.04,2.23-2.87v-29.75c1.32-2.34,4.32-4.8,7.76-5.26,3.69-.48,7.77,1.07,10.79,4.44l.02-10.85Z"/>
    <path class="cls-1" d="M353.16,86.69c0,3.65-2.96,6.62-6.63,6.62s-6.62-2.97-6.62-6.62,2.98-6.62,6.62-6.62,6.63,2.96,6.63,6.62Z"/>
  </g>
  <g>
    <path class="cls-1" d="M412.49,94.8c-.57-.25-1.21-.37-1.87-.37s-1.47.27-1.47,1.27c0,1.62,4.07.94,4.07,4.04,0,2.03-1.61,2.8-3.48,2.8-1.01,0-1.46-.13-2.38-.37l.18-1.66c.64.36,1.36.57,2.11.57.7,0,1.64-.36,1.64-1.2,0-1.76-4.06-1.04-4.06-4.09,0-2.06,1.6-2.82,3.23-2.82.79,0,1.53.11,2.23.33l-.2,1.52Z"/>
    <path class="cls-1" d="M414.71,93.18h2.95l2.17,6.92h.04l2.16-6.92h2.95v9.14h-1.76v-7.56h-.03l-2.45,7.56h-1.78l-2.45-7.56-.03.03v7.54h-1.77v-9.14Z"/>
  </g>
</svg>