<svg width="1024" height="1024" viewBox="0 0 1024 1024" fill="none" xmlns="http://www.w3.org/2000/svg">
<path fill-rule="evenodd" clip-rule="evenodd" d="M0 512V1024H512H1024V512V0H512H0V512ZM508 228.263V280.526L486.75 291.255C466.179 301.641 400.241 335.362 350 361.188C336.525 368.115 317.72 377.742 308.212 382.581L290.924 391.38L283.712 387.545C271.417 381.007 249.078 369.051 236 362.008C229.125 358.306 216.163 351.333 207.195 346.511L190.89 337.745L193.695 336.05C195.238 335.118 210.9 327.019 228.5 318.051C246.1 309.084 270.85 296.461 283.5 289.999C322.835 269.907 363.232 249.41 425.5 217.95C458.5 201.277 490.45 185.025 496.5 181.834C502.55 178.644 507.613 176.026 507.75 176.017C507.887 176.007 508 199.518 508 228.263ZM546.102 191.053C573.529 205.285 671.236 255.824 707 274.277C717.725 279.811 731.413 286.963 737.418 290.169C743.422 293.376 748.506 296 748.714 296C749.268 296 828.1 336.964 830.736 338.622C832.875 339.967 832.439 340.305 820.736 346.37C765.916 374.781 732.146 392 731.247 392C730.66 392 727.101 390.26 723.34 388.133C719.578 386.006 698.5 374.936 676.5 363.532C654.5 352.129 634.7 341.778 632.5 340.531C630.3 339.284 621.75 334.724 613.5 330.399C572.545 308.928 557.817 301.223 538.761 291.3L518.022 280.5L518.011 228.75C518.005 200.287 518.23 177 518.51 177C518.791 177 531.207 183.324 546.102 191.053ZM209.322 358.12C223.72 365.887 242.25 375.863 250.5 380.289C258.75 384.716 272.25 392.013 280.5 396.505C288.75 400.996 300 407.062 305.5 409.984C317.842 416.541 323.831 419.782 336 426.49C353.177 435.958 357.372 438.241 369 444.454C453.504 489.604 470.28 498.926 477.485 504.737C489.822 514.686 494.282 524.727 495.986 546.395C498.49 578.237 495.992 642.029 491.341 665C489.338 674.893 484.265 685.7 479.781 689.627C471.496 696.883 459.036 697.882 444 692.497C435.77 689.549 410.718 678.659 400.188 673.453C396.518 671.638 393.344 670.322 393.137 670.53C392.929 670.738 395.626 675.419 399.13 680.933C402.633 686.448 407.408 694.006 409.74 697.73C412.072 701.453 417.022 709.306 420.74 715.181C424.458 721.055 429.139 728.48 431.143 731.681C433.146 734.881 439.606 745.15 445.499 754.5C455.905 771.011 460.045 777.662 483.468 815.5C499.271 841.028 499.2 840.906 498.833 841.941C498.65 842.457 487.925 837.232 475 830.331C462.075 823.429 443.4 813.498 433.5 808.262C386.833 783.579 382.552 781.119 380.389 777.745C379.229 775.935 370.851 762.089 361.773 746.977C352.694 731.865 342.219 714.55 338.494 708.5C334.768 702.45 329.403 693.675 326.569 689C279.366 611.111 282.153 615.309 275.047 611.371C271.702 609.517 268.748 608 268.483 608C268.217 608 268 613.811 268 620.913V633.827L251.75 642.279C242.813 646.928 226.05 655.577 214.5 661.5C202.95 667.423 192.539 672.86 191.365 673.582C190.19 674.305 188.953 674.619 188.615 674.281C187.635 673.302 187.896 480 188.877 480C189.359 480 198.021 484.545 208.127 490.099C218.232 495.654 230.325 502.247 235 504.75C239.675 507.253 246.425 510.961 250 512.99C253.575 515.019 260.55 518.837 265.5 521.475C270.45 524.113 276.975 527.722 280 529.496C283.025 531.27 288.425 534.281 292 536.186C302.048 541.542 321.366 552.132 345.5 565.517C357.6 572.228 370.875 579.535 375 581.756C379.125 583.976 387.45 588.536 393.5 591.89C404.606 598.046 408.783 599.171 410.929 596.585C411.575 595.807 412.548 590.969 413.09 585.835C414.695 570.653 412.797 562.351 406.66 557.71C403.819 555.562 393.688 549.816 375 539.755C359.83 531.587 332.086 516.538 327 513.717C323.975 512.04 316.325 507.892 310 504.499C303.675 501.107 288.6 492.915 276.5 486.295C237.827 465.137 207.853 448.804 195 441.884L182.5 435.155L182.24 389.578C182.097 364.51 182.242 344 182.562 344C182.882 344 194.924 350.354 209.322 358.12ZM841 511.849V676.697L831.25 681.304C825.888 683.837 809.125 692.255 794 700.009L766.5 714.109L766 589.89L765.5 465.672L756.831 485.086C752.062 495.764 745.371 510.575 741.961 518C732.736 538.086 725.315 554.345 720.508 565C718.151 570.225 713.723 579.74 710.667 586.145L705.111 597.791L678.306 611.563C663.563 619.137 650.024 626.159 648.22 627.167C646.415 628.175 644.788 629 644.604 629C644.42 629 640.501 624.163 635.896 618.25C631.291 612.337 625.718 605.23 623.512 602.456C621.305 599.681 612.075 588.055 603 576.621L586.5 555.831L585.752 598.665C585.341 622.224 584.666 678.533 584.252 723.797L583.5 806.093L560.5 817.875C547.85 824.355 530.75 833.117 522.5 837.347L507.5 845.036L507 681.768C506.669 573.637 506.838 518.111 507.5 517.349C508.502 516.197 516.711 511.889 561.5 489.012C574.7 482.27 594.117 472.299 604.649 466.854L623.797 456.953L634.125 470.227C654.327 496.192 671.149 517.184 671.482 516.844C671.668 516.655 674.964 509.525 678.808 501C682.651 492.475 691.271 473.35 697.963 458.5C704.656 443.65 712.464 426.417 715.316 420.204L720.5 408.909L729.5 404.078C734.45 401.421 751.775 392.456 768 384.155C784.225 375.855 806.95 364.139 818.5 358.121C830.05 352.102 839.837 347.137 840.25 347.089C840.663 347.04 841 421.182 841 511.849ZM268 684C268 705.45 267.64 723 267.2 723C266.76 723 265.973 722.605 265.45 722.122C264.928 721.639 254.15 715.703 241.5 708.93C228.85 702.158 215.35 694.885 211.5 692.769C207.65 690.653 202.137 687.721 199.25 686.253C196.363 684.785 194.015 683.34 194.033 683.042C194.05 682.744 195.513 681.798 197.283 680.939C203.953 677.703 254.751 651.501 260.5 648.331C263.8 646.512 266.837 645.018 267.25 645.011C267.663 645.005 268 662.55 268 684Z" fill="black"/>
</svg>
